HIERARCHY
ROOT Hips
{
  OFFSET 5.80788e-005 67.184 3.4734
  CHANNELS 6 Xposition Yposition Zposition Zrotation Xrotation Yrotation
  JOINT Chest
  {
    OFFSET 0 8.7983 -4.7612
    CHANNELS 6 Xposition Yposition Zposition Zrotation Xrotation Yrotation
    JOINT Chest2
    {
      OFFSET 0 8.0291 0.4195
      CHANNELS 6 Xposition Yposition Zposition Zrotation Xrotation Yrotation
      JOINT Chest3
      {
        OFFSET 0 9.9351 -2.2114
        CHANNELS 6 Xposition Yposition Zposition Zrotation Xrotation Yrotation
        JOINT Neck
        {
          OFFSET 0 22.3885 -0.4656
          CHANNELS 6 Xposition Yposition Zposition Zrotation Xrotation Yrotation
          JOINT Head
          {
            OFFSET -0.0001 12.643 3.4389
            CHANNELS 6 Xposition Yposition Zposition Zrotation Xrotation Yrotation
            End Site
            {
              OFFSET 0.0001 17.6655 0.5274
            }
          }
        }
        JOINT LeftCollar
        {
          OFFSET 2.2603 21.606 7.4023
          CHANNELS 6 Xposition Yposition Zposition Zrotation Xrotation Yrotation
          JOINT LeftShoulder
          {
            OFFSET 13.5163 -1.1332 -5.0146
            CHANNELS 6 Xposition Yposition Zposition Zrotation Xrotation Yrotation
            JOINT LeftElbow
            {
              OFFSET -0.0995 -28.05 -0.2431
              CHANNELS 6 Xposition Yposition Zposition Zrotation Xrotation Yrotation
              JOINT LeftWrist
              {
                OFFSET 0.0679 -23.3996 -0.1402
                CHANNELS 6 Xposition Yposition Zposition Zrotation Xrotation Yrotation
                JOINT LeftFinger1
                {
                  OFFSET 0.7932 -9.069 2.5189
                  CHANNELS 6 Xposition Yposition Zposition Zrotation Xrotation Yrotation
                  JOINT LeftFinger11
                  {
                    OFFSET -0.8272 -3.3923 0.5977
                    CHANNELS 6 Xposition Yposition Zposition Zrotation Xrotation Yrotation
                    JOINT LeftFinger12
                    {
                      OFFSET -0.5649 -2.3158 0.4082
                      CHANNELS 6 Xposition Yposition Zposition Zrotation Xrotation Yrotation
                      End Site
                      {
                        OFFSET -0.4919 -1.6479 0.2673
                      }
                    }
                  }
                }
                JOINT LeftFinger2
                {
                  OFFSET 0.9159 -9.2044 0.2193
                  CHANNELS 6 Xposition Yposition Zposition Zrotation Xrotation Yrotation
                  JOINT LeftFinger21
                  {
                    OFFSET 0.0117 -4.1944 -0.0248
                    CHANNELS 6 Xposition Yposition Zposition Zrotation Xrotation Yrotation
                    JOINT LeftFinger22
                    {
                      OFFSET 0.0071 -2.3249 -0.0142
                      CHANNELS 6 Xposition Yposition Zposition Zrotation Xrotation Yrotation
                      End Site
                      {
                        OFFSET -0.1475 -2.0882 0.0028
                      }
                    }
                  }
                }
                JOINT LeftFinger3
                {
                  OFFSET 0.6113 -8.7231 -2.0637
                  CHANNELS 6 Xposition Yposition Zposition Zrotation Xrotation Yrotation
                  JOINT LeftFinger31
                  {
                    OFFSET -0.1927 -3.8059 -0.2383
                    CHANNELS 6 Xposition Yposition Zposition Zrotation Xrotation Yrotation
                    JOINT LeftFinger32
                    {
                      OFFSET -0.1091 -2.1688 -0.1362
                      CHANNELS 6 Xposition Yposition Zposition Zrotation Xrotation Yrotation
                      End Site
                      {
                        OFFSET -0.2358 -1.9176 -0.0906
                      }
                    }
                  }
                }
                JOINT LeftFinger4
                {
                  OFFSET -0.6151 -8.0947 -3.5641
                  CHANNELS 6 Xposition Yposition Zposition Zrotation Xrotation Yrotation
                  JOINT LeftFinger41
                  {
                    OFFSET -0.4882 -2.341 -0.6462
                    CHANNELS 6 Xposition Yposition Zposition Zrotation Xrotation Yrotation
                    JOINT LeftFinger42
                    {
                      OFFSET -0.3575 -1.7167 -0.4742
                      CHANNELS 6 Xposition Yposition Zposition Zrotation Xrotation Yrotation
                      End Site
                      {
                        OFFSET -0.4187 -1.5237 -0.3496
                      }
                    }
                  }
                }
                JOINT LeftFinger0
                {
                  OFFSET -1.42 -1.8761 1.4223
                  CHANNELS 6 Xposition Yposition Zposition Zrotation Xrotation Yrotation
                  JOINT LeftFinger01
                  {
                    OFFSET -1.1471 -3.4929 2.6334
                    CHANNELS 6 Xposition Yposition Zposition Zrotation Xrotation Yrotation
                    JOINT LeftFinger02
                    {
                      OFFSET -0.823 -2.3 1.6571
                      CHANNELS 6 Xposition Yposition Zposition Zrotation Xrotation Yrotation
                      End Site
                      {
                        OFFSET -0.5822 -1.6914 1.1582
                      }
                    }
                  }
                }
              }
            }
          }
        }
        JOINT RightCollar
        {
          OFFSET -2.2603 21.606 7.4023
          CHANNELS 6 Xposition Yposition Zposition Zrotation Xrotation Yrotation
          JOINT RightShoulder
          {
            OFFSET -13.5187 -1.1334 -5.0155
            CHANNELS 6 Xposition Yposition Zposition Zrotation Xrotation Yrotation
            JOINT RightElbow
            {
              OFFSET 0.0994 -28.0499 -0.2431
              CHANNELS 6 Xposition Yposition Zposition Zrotation Xrotation Yrotation
              JOINT RightWrist
              {
                OFFSET -0.0679 -23.3996 -0.1402
                CHANNELS 6 Xposition Yposition Zposition Zrotation Xrotation Yrotation
                JOINT RightFinger1
                {
                  OFFSET -0.7932 -9.0691 2.5189
                  CHANNELS 6 Xposition Yposition Zposition Zrotation Xrotation Yrotation
                  JOINT RightFinger11
                  {
                    OFFSET 0.8272 -3.3923 0.5977
                    CHANNELS 6 Xposition Yposition Zposition Zrotation Xrotation Yrotation
                    JOINT RightFinger12
                    {
                      OFFSET 0.565 -2.3158 0.4082
                      CHANNELS 6 Xposition Yposition Zposition Zrotation Xrotation Yrotation
                      End Site
                      {
                        OFFSET 0.4919 -1.6479 0.2673
                      }
                    }
                  }
                }
                JOINT RightFinger2
                {
                  OFFSET -0.916 -9.2044 0.2193
                  CHANNELS 6 Xposition Yposition Zposition Zrotation Xrotation Yrotation
                  JOINT RightFinger21
                  {
                    OFFSET -0.0117 -4.1944 -0.0248
                    CHANNELS 6 Xposition Yposition Zposition Zrotation Xrotation Yrotation
                    JOINT RightFinger22
                    {
                      OFFSET -0.0071 -2.3249 -0.0142
                      CHANNELS 6 Xposition Yposition Zposition Zrotation Xrotation Yrotation
                      End Site
                      {
                        OFFSET 0.1475 -2.0882 0.0028
                      }
                    }
                  }
                }
                JOINT RightFinger3
                {
                  OFFSET -0.6113 -8.7231 -2.0637
                  CHANNELS 6 Xposition Yposition Zposition Zrotation Xrotation Yrotation
                  JOINT RightFinger31
                  {
                    OFFSET 0.1927 -3.8059 -0.2383
                    CHANNELS 6 Xposition Yposition Zposition Zrotation Xrotation Yrotation
                    JOINT RightFinger32
                    {
                      OFFSET 0.1091 -2.1688 -0.1362
                      CHANNELS 6 Xposition Yposition Zposition Zrotation Xrotation Yrotation
                      End Site
                      {
                        OFFSET 0.2358 -1.9176 -0.0906
                      }
                    }
                  }
                }
                JOINT RightFinger4
                {
                  OFFSET 0.6151 -8.0947 -3.564
                  CHANNELS 6 Xposition Yposition Zposition Zrotation Xrotation Yrotation
                  JOINT RightFinger41
                  {
                    OFFSET 0.4882 -2.341 -0.6462
                    CHANNELS 6 Xposition Yposition Zposition Zrotation Xrotation Yrotation
                    JOINT RightFinger42
                    {
                      OFFSET 0.3574 -1.7166 -0.4742
                      CHANNELS 6 Xposition Yposition Zposition Zrotation Xrotation Yrotation
                      End Site
                      {
                        OFFSET 0.4187 -1.5237 -0.3496
                      }
                    }
                  }
                }
                JOINT RightFinger0
                {
                  OFFSET 1.4199 -1.8761 1.4221
                  CHANNELS 6 Xposition Yposition Zposition Zrotation Xrotation Yrotation
                  JOINT RightFinger01
                  {
                    OFFSET 1.1472 -3.4929 2.6336
                    CHANNELS 6 Xposition Yposition Zposition Zrotation Xrotation Yrotation
                    JOINT RightFinger02
                    {
                      OFFSET 0.8229 -2.3 1.6571
                      CHANNELS 6 Xposition Yposition Zposition Zrotation Xrotation Yrotation
                      End Site
                      {
                        OFFSET 0.5822 -1.6914 1.1582
                      }
                    }
                  }
                }
              }
            }
          }
        }
      }
    }
  }
  JOINT RightHip
  {
    OFFSET -9.412 3.9771 -0.7758
    CHANNELS 6 Xposition Yposition Zposition Zrotation Xrotation Yrotation
    JOINT RightKnee
    {
      OFFSET -0.7531 -40.938 0
      CHANNELS 6 Xposition Yposition Zposition Zrotation Xrotation Yrotation
      JOINT RightAnkle
      {
        OFFSET 0 -40.1986 0
        CHANNELS 6 Xposition Yposition Zposition Zrotation Xrotation Yrotation
        JOINT RightToe
        {
          OFFSET 0 -4.4182 9.239
          CHANNELS 6 Xposition Yposition Zposition Zrotation Xrotation Yrotation
          End Site
          {
            OFFSET 0 0 6.1981
          }
        }
      }
    }
  }
  JOINT LeftHip
  {
    OFFSET 9.4119 3.9773 -0.7758
    CHANNELS 6 Xposition Yposition Zposition Zrotation Xrotation Yrotation
    JOINT LeftKnee
    {
      OFFSET 0.7532 -40.9383 0
      CHANNELS 6 Xposition Yposition Zposition Zrotation Xrotation Yrotation
      JOINT LeftAnkle
      {
        OFFSET 0 -40.1986 0
        CHANNELS 6 Xposition Yposition Zposition Zrotation Xrotation Yrotation
        JOINT LeftToe
        {
          OFFSET 0 -4.4182 9.239
          CHANNELS 6 Xposition Yposition Zposition Zrotation Xrotation Yrotation
          End Site
          {
            OFFSET 0 0 6.1981
          }
        }
      }
    }
  }
}
MOTION
Frames:	4
Frame Time:	0.0333333
5.80788e-005 67.184 3.4734 0 0 -0 0 8.7983 -4.7612 0 0 -0 0 8.0291 0.4195 0 0 -0 0 9.9351 -2.2114 0 0 -0 0 22.3885 -0.4656 0 0 -0 -0.0001 12.643 3.4389 0 0 -0 2.2603 21.606 7.4023 0 0 -12.5014 13.5163 -1.1332 -5.0146 88.1196 14.2451 10.6914 -0.0995 -28.05 -0.2431 -0.00160068 -0.00239207 0.000740045 0.0679 -23.3996 -0.1402 -8.4365e-005 7.00714e-005 -9.52055e-007 0.7932 -9.069 2.5189 9.93923e-017 -1.98785e-016 -1.59028e-015 -0.8272 -3.3923 0.5977 9.93923e-017 -5.96354e-016 -1.59028e-015 -0.5649 -2.3158 0.4082 -9.93923e-017 -5.96354e-016 -1.59028e-015 0.9159 -9.2044 0.2193 9.93923e-017 -1.98785e-016 -1.59028e-015 0.0117 -4.1944 -0.0248 -0.0128176 0.00232552 8.52707e-005 0.0071 -2.3249 -0.0142 9.93923e-017 5.96354e-016 -0 0.6113 -8.7231 -2.0637 9.93923e-017 -1.98785e-016 -1.59028e-015 -0.1927 -3.8059 -0.2383 -0.0160551 0.00299681 0.000857156 -0.1091 -2.1688 -0.1362 -2.48481e-016 0 3.18055e-015 -0.6151 -8.0947 -3.5641 9.93923e-017 -1.98785e-016 -1.59028e-015 -0.4882 -2.341 -0.6462 -0.0125865 0.0031206 0.00282719 -0.3575 -1.7167 -0.4742 0 1.98785e-016 -0 -1.42 -1.8761 1.4223 9.93923e-017 -1.98785e-016 -1.59028e-015 -1.1471 -3.4929 2.6334 9.93923e-017 -5.96354e-016 -1.59028e-015 -0.823 -2.3 1.6571 -9.93923e-017 -5.96354e-016 -1.59028e-015 -2.2603 21.606 7.4023 -0.865644 0.16582 7.03859 -13.5187 -1.1334 -5.0155 -88.0329 10.2057 -10.5567 0.0994 -28.0499 -0.2431 0.0015593 -0.00248883 -0.000788628 -0.0679 -23.3996 -0.1402 7.87605e-005 4.10553e-005 1.24965e-005 -0.7932 -9.0691 2.5189 -3.97569e-016 -7.95139e-016 3.18055e-015 0.8272 -3.3923 0.5977 -1.98785e-016 -3.97569e-016 3.18055e-015 0.565 -2.3158 0.4082 -1.98785e-016 0 3.18055e-015 -0.916 -9.2044 0.2193 -3.97569e-016 -7.95139e-016 3.18055e-015 -0.0117 -4.1944 -0.0248 0.0129473 0.00231697 -8.70038e-005 -0.0071 -2.3249 -0.0142 9.93923e-017 -7.95139e-016 1.59028e-015 -0.6113 -8.7231 -2.0637 -3.97569e-016 -7.95139e-016 3.18055e-015 0.1927 -3.8059 -0.2383 0.0163314 0.00303369 -0.000872333 0.1091 -2.1688 -0.1362 3.97569e-016 7.95139e-016 -3.18055e-015 0.6151 -8.0947 -3.564 -3.97569e-016 -7.95139e-016 3.18055e-015 0.4882 -2.341 -0.6462 0.0145763 0.00367772 -0.00326275 0.3574 -1.7166 -0.4742 9.93923e-017 -3.97569e-016 -0 1.4199 -1.8761 1.4221 -3.97569e-016 -7.95139e-016 3.18055e-015 1.1472 -3.4929 2.6336 -1.98785e-016 -3.97569e-016 3.18055e-015 0.8229 -2.3 1.6571 -1.98785e-016 0 3.18055e-015 -9.412 3.9771 -0.7758 3.42485 1.36937 -0.0640303 -0.7531 -40.938 0 0.000136572 0.69354 0.00145564 1.77636e-015 -40.1986 -1.11022e-016 -3.42573 -2.06297 -0.0607933 8.88178e-016 -4.4182 9.239 -3.19502e-024 0 -1.48106e-024 9.4119 3.9773 -0.7758 -3.42498 1.36123 0.0639712 0.7532 -40.9383 2.22045e-016 -6.769e-005 0.712612 -0.0012277 8.88179e-016 -40.1986 0 3.42582 -2.07388 0.0612819 -8.88178e-016 -4.4182 9.239 2.55305e-023 0 -2.31416e-026 
0.751325 42.0708 -16.4643 114.099 -57.1558 -0.301 0 8.7983 -4.7612 -0.0537865 -0.096614 -0.0847888 0 8.0291 0.4195 -0.10766 -0.193166 -0.169683 -7.10543e-015 9.9351 -2.2114 -0.107658 -0.193183 -0.169693 -7.10543e-015 22.3885 -0.4656 0.000342477 -12.8532 0.000396873 -0.0001 12.643 3.4389 -9.53662e-006 -11.5812 3.05692e-006 2.2603 21.606 7.4023 -3.85098 -0.099537 -12.6476 13.5163 -1.1332 -5.0146 90.7423 -20.2233 11.5426 -0.0995 -28.05 -0.2431 8.95557 -21.9605 9.32111 0.0679 -23.3996 -0.1402 37.7413 -5.87947 3.19025 0.7932 -9.069 2.5189 -6.36111e-015 1.04362e-015 5.96354e-016 -0.8272 -3.3923 0.5977 -6.36111e-015 8.44835e-016 -0 -0.5649 -2.3158 0.4082 1.93108e-032 -1.39149e-015 7.95139e-016 0.9159 -9.2044 0.2193 -6.36111e-015 1.04362e-015 5.96354e-016 0.0117 -4.1944 -0.0248 -0.0128271 0.00231197 8.14475e-005 0.0071 -2.3249 -0.0142 -9.54166e-015 3.42904e-015 -1.39149e-015 0.6113 -8.7231 -2.0637 -6.36111e-015 1.04362e-015 5.96354e-016 -0.1927 -3.8059 -0.2383 -0.0160886 0.00299253 0.000858615 -0.1091 -2.1688 -0.1362 2.04174e-007 -3.37537e-007 -1.69461e-006 -0.6151 -8.0947 -3.5641 -6.36111e-015 1.04362e-015 5.96354e-016 -0.4882 -2.341 -0.6462 -0.0125945 0.00309452 0.00282651 -0.3575 -1.7167 -0.4742 -9.54166e-015 1.04362e-015 7.95139e-016 -1.42 -1.8761 1.4223 -6.36111e-015 1.04362e-015 5.96354e-016 -1.1471 -3.4929 2.6334 -6.36111e-015 8.44835e-016 -0 -0.823 -2.3 1.6571 1.93108e-032 -1.39149e-015 7.95139e-016 -2.2603 21.606 7.4023 2.9838 0.0637351 7.18484 -13.5187 -1.1334 -5.0155 -90.8527 -24.2264 -12.1516 0.0994 -28.0499 -0.2431 -8.9114 -21.7786 -9.85103 -0.0679 -23.3996 -0.1402 -37.7525 -5.49066 -4.04388 -0.7932 -9.0691 2.5189 9.54166e-015 -1.04859e-014 -4.12478e-015 0.8272 -3.3923 0.5977 1.27222e-014 5.36719e-015 7.95139e-016 0.565 -2.3158 0.4082 9.54166e-015 4.84538e-015 -1.19271e-015 -0.916 -9.2044 0.2193 9.54166e-015 -1.04859e-014 -4.12478e-015 -0.0117 -4.1944 -0.0248 0.0129047 0.0023044 -8.0207e-005 -0.0071 -2.3249 -0.0142 -3.18055e-015 6.18717e-015 8.79622e-015 -0.6113 -8.7231 -2.0637 9.54166e-015 -1.04859e-014 -4.12478e-015 0.1927 -3.8059 -0.2383 0.0163058 0.00303896 -0.000882994 0.1091 -2.1688 -0.1362 -2.83628e-032 2.33572e-015 6.95746e-016 0.6151 -8.0947 -3.564 9.54166e-015 -1.04859e-014 -4.12478e-015 0.4882 -2.341 -0.6462 0.0145859 0.00369485 -0.00327724 0.3574 -1.7166 -0.4742 -4.79366e-031 -8.3738e-015 -3.27995e-015 1.4199 -1.8761 1.4221 9.54166e-015 -1.04859e-014 -4.12478e-015 1.1472 -3.4929 2.6336 1.27222e-014 5.36719e-015 7.95139e-016 0.8229 -2.3 1.6571 9.54166e-015 4.84538e-015 -1.19271e-015 -9.412 3.9771 -0.7758 -55.4724 -80.015 -69.703 -0.7531 -40.938 -8.88179e-016 -56.7892 87.4742 57.0826 0 -40.1986 0 -6.26736 28.3543 1.17567 0 -4.4182 9.239 3.60848e-007 -2.33594e-007 7.73679e-007 9.4119 3.9773 -0.7758 52.6469 -79.4704 66.6994 0.7532 -40.9383 0 62.5122 87.6193 -62.9863 -7.10543e-015 -40.1986 0 6.04617 27.3839 -1.18233 7.10543e-015 -4.4182 9.239 1.94061e-005 3.81646e-007 -1.54538e-006 
0.784111 14.9851 -34.6898 12.0132 -85.3561 -176.711 4.44089e-016 8.7983 -4.7612 -0.0887751 -0.15031 -0.139712 -8.88178e-016 8.0291 0.4195 -0.177911 -0.300451 -0.279651 -4.44089e-016 9.9351 -2.2114 -0.177915 -0.300447 -0.279659 0 22.3885 -0.4656 -0.00021512 -20.8507 -0.000227527 -0.0001 12.643 3.4389 -1.38437e-006 -18.7505 -2.31055e-006 2.2603 21.606 7.4023 -6.42218 -0.0224002 -13.301 13.5163 -1.1332 -5.0146 91.3035 -42.2048 11.4619 -0.0995 -28.05 -0.2431 14.2215 -35.7558 14.4318 0.0679 -23.3996 -0.1402 62.6913 -8.29815 7.21139 0.793199 -9.06901 2.5189 8.26105e-006 2.38474e-007 -6.05219e-006 -0.827199 -3.3923 0.5977 -3.03629e-006 -1.18449e-006 -2.06016e-006 -0.564899 -2.3158 0.4082 1.14301e-015 -6.36111e-015 2.13694e-015 0.915899 -9.20441 0.2193 8.26105e-006 2.38474e-007 -6.05219e-006 0.0117 -4.1944 -0.0248 -0.0128482 0.00233073 8.92542e-005 0.00709999 -2.3249 -0.0142 2.48481e-016 0 2.78299e-015 0.611299 -8.72311 -2.0637 8.26105e-006 2.38474e-007 -6.05219e-006 -0.1927 -3.8059 -0.2383 -0.0160489 0.00301295 0.000865601 -0.1091 -2.1688 -0.1362 -4.47266e-016 -4.77083e-015 2.48481e-017 -0.615099 -8.09471 -3.5641 8.26105e-006 2.38474e-007 -6.05219e-006 -0.4882 -2.341 -0.6462 -0.0125871 0.00310976 0.00283538 -0.3575 -1.7167 -0.4742 -4.96962e-017 -3.18055e-015 1.49089e-016 -1.42 -1.8761 1.4223 8.26105e-006 2.38474e-007 -6.05219e-006 -1.1471 -3.4929 2.6334 -3.03629e-006 -1.18449e-006 -2.06016e-006 -0.822999 -2.3 1.6571 1.14301e-015 -6.36111e-015 2.13694e-015 -2.2603 21.606 7.4023 5.54968 0.131508 7.8301 -13.5187 -1.1334 -5.0155 -91.9301 -46.211 -12.702 0.0993999 -28.0499 -0.2431 -14.3094 -35.4731 -15.2967 -0.0679 -23.3996 -0.1402 -62.6825 -7.39702 -8.406 -0.793199 -9.06911 2.5189 -2.83268e-015 4.77083e-015 1.35298e-014 0.827199 -3.3923 0.5977 3.30054e-006 3.42747e-006 9.85215e-007 0.565 -2.3158 0.4082 2.41649e-006 5.55574e-006 -3.2557e-006 -0.915999 -9.20441 0.2193 -2.83268e-015 4.77083e-015 1.35298e-014 -0.0117 -4.1944 -0.0248 0.0129511 0.00231956 -8.79318e-005 -0.00709999 -2.3249 -0.0142 -4.30662e-006 6.38817e-007 -4.38894e-006 -0.611299 -8.72311 -2.0637 -2.83268e-015 4.77083e-015 1.35298e-014 0.1927 -3.8059 -0.2383 0.0163396 0.00304022 -0.000876597 0.1091 -2.1688 -0.1362 2.06902e-033 -3.18055e-015 3.72721e-017 0.6151 -8.09471 -3.564 -2.83268e-015 4.77083e-015 1.35298e-014 0.4882 -2.341 -0.6462 0.0145574 0.00367203 -0.0032612 0.3574 -1.7166 -0.4742 4.92863e-006 2.74377e-006 1.61808e-006 1.4199 -1.8761 1.4221 -2.83268e-015 4.77083e-015 1.35298e-014 1.1472 -3.4929 2.6336 3.30054e-006 3.42747e-006 9.85215e-007 0.822899 -2.3 1.6571 2.41649e-006 5.55574e-006 -3.2557e-006 -9.412 3.9771 -0.7758 -149.329 -37.5216 -164.391 -0.7531 -40.938 7.10543e-015 -174.554 35.7809 170.372 1.77636e-015 -40.1986 0 -8.25376 48.4615 0.345857 0 -4.4182 9.239 4.15039e-006 9.94235e-007 4.48461e-007 9.4119 3.9773 -0.7758 149.497 -37.6747 164.914 0.7532 -40.9383 0 174.455 36.2128 -170.024 1.77636e-015 -40.1986 0 8.24566 48.8303 -0.204253 0 -4.4182 9.239 -1.5027e-007 -2.05475e-007 1.19798e-006 
0.487966 15.99 -33.9957 9.13488 -86.1303 -176.266 0 8.7983 -4.7612 -0.08745 -0.120641 -0.136783 0 8.0291 0.4195 -0.175185 -0.24109 -0.27375 0 9.9351 -2.2114 -0.175185 -0.241092 -0.273749 -4.44089e-016 22.3885 -0.4656 -0.000871494 -19.4057 -0.000930995 -0.0001 12.643 3.4389 5.44887e-007 -17.3422 2.71069e-007 2.2603 21.606 7.4023 -6.48531 0.398951 -14.938 13.5163 -1.1332 -5.0146 91.299 -39.9258 11.5797 -0.0995 -28.05 -0.2431 13.3638 -33.9357 13.9184 0.0679 -23.3996 -0.1402 61.7348 -8.92432 7.52655 0.7932 -9.069 2.5189 -1.59028e-015 4.77083e-015 -1.2921e-015 -0.8272 -3.3923 0.5977 -9.64442e-006 -3.26217e-006 -3.85572e-006 -0.5649 -2.3158 0.4082 -7.95139e-016 0 -9.93923e-017 0.9159 -9.2044 0.2193 -1.59028e-015 4.77083e-015 -1.2921e-015 0.0117 -4.1944 -0.0248 -0.0128134 0.00232769 8.88008e-005 0.0071 -2.3249 -0.0142 -1.19271e-015 -3.47015e-006 9.93923e-017 0.6113 -8.7231 -2.0637 -1.59028e-015 4.77083e-015 -1.2921e-015 -0.1927 -3.8059 -0.2383 -0.0160526 0.00298385 0.000861057 -0.1091 -2.1688 -0.1362 1.19271e-015 3.18055e-015 -1.14301e-014 -0.6151 -8.0947 -3.5641 -1.59028e-015 4.77083e-015 -1.2921e-015 -0.4882 -2.341 -0.6462 -0.0125679 0.00311237 0.00282355 -0.3575 -1.7167 -0.4742 1.08202e-006 3.62596e-006 -4.21339e-006 -1.42 -1.8761 1.4223 -1.59028e-015 4.77083e-015 -1.2921e-015 -1.1471 -3.4929 2.6334 -9.64442e-006 -3.26217e-006 -3.85572e-006 -0.823 -2.3 1.6571 -7.95139e-016 0 -9.93923e-017 -2.2603 21.606 7.4023 5.60317 0.530405 9.44668 -13.5187 -1.1334 -5.0155 -91.8551 -43.9815 -12.7375 0.0994 -28.0499 -0.2431 -13.4266 -33.6633 -14.7334 -0.0679 -23.3996 -0.1402 -61.725 -8.0418 -8.70558 -0.7932 -9.0691 2.5189 1.19271e-015 0 7.95139e-016 0.8272 -3.3923 0.5977 -3.97569e-016 0 1.98785e-016 0.565 -2.3158 0.4082 3.97569e-016 0 4.96962e-016 -0.916 -9.2044 0.2193 1.19271e-015 0 7.95139e-016 -0.0117 -4.1944 -0.0248 0.0129254 0.00229954 -7.94501e-005 -0.0071 -2.3249 -0.0142 -7.95139e-016 3.18055e-015 -2.28602e-015 -0.6113 -8.7231 -2.0637 1.19271e-015 0 7.95139e-016 0.1927 -3.8059 -0.2383 0.0163125 0.00302526 -0.000864431 0.1091 -2.1688 -0.1362 -3.97569e-016 -3.18055e-015 1.68967e-015 0.6151 -8.0947 -3.564 1.19271e-015 0 7.95139e-016 0.4882 -2.341 -0.6462 0.0145536 0.00367322 -0.00325793 0.3574 -1.7166 -0.4742 -3.97569e-016 1.59028e-015 -6.95746e-016 1.4199 -1.8761 1.4221 1.19271e-015 0 7.95139e-016 1.1472 -3.4929 2.6336 -3.97569e-016 0 1.98785e-016 0.8229 -2.3 1.6571 3.97569e-016 0 4.96962e-016 -9.412 3.9771 -0.7758 -147.865 -40.8002 -162.962 -0.7531 -40.938 0 -174.337 38.3066 170.481 -4.44089e-015 -40.1986 0 -8.59523 47.194 0.634816 1.77636e-015 -4.4182 9.239 3.0101e-006 7.43592e-007 -7.80128e-007 9.4119 3.9773 -0.7758 147.984 -40.8832 163.284 0.7532 -40.9383 -7.10543e-015 174.274 38.5762 -170.274 8.88178e-016 -40.1986 1.77636e-015 8.60311 47.4403 -0.562892 -8.88178e-016 -4.4182 9.23901 3.81079e-006 6.49453e-007 -2.31854e-007 
